:SAMPLES-PER-SECOND 30
:FULLY-SPECIFIED
:DEGREES
963
root  20.4823 37.4877 30.8608 -157.353 -31.2559 -179.691
RightUpLeg  -61.7591 -23.4226 9.12978
RightLeg  42.3403 -2.56913 -2.72462
RightFoot  3.38412 -1.94245 15.1541
RightToes  2.91037e-010 0 -3.6325e-017
Spine  69.0395 -3.28468 4.07052
Spine1  21.4868 1.49685 -3.26697
HEad  -24.2103 -1.31516 -1.78131
LeftShoulder1  4.70236 -22.5944 -10.698
LeftArm  -88.6799 -60.9335 43.0762
LeftForeArm  -8.01347 -4.62727 1.88533
LeftHand  -0.244104 0.0205437 5.32207
RightShoulder  -1.75429 16.9913 -19.38
RightArm  -74.4683 48.9136 -14.2915
RightForeArm  -25.769 -3.12709 -4.89627
RightHand  0.256085 -3.71468 19.8979
LeftUpLeg  -51.7692 21.0224 -20.0191
LeftLeg  35.9985 2.12232 2.04269
LeftFoot  -11.4888 0.0834817 12.3895
LeftToes  -1.10052e-010 1.3781e-010 -2.1811e-011
964
root  21.0764 37.7485 31.542 -155.803 -29.905 -179.544
RightUpLeg  -60.9417 -22.5351 5.37589
RightLeg  47.2228 -4.14107 -5.08045
RightFoot  0.959774 -1.20479 11.2192
RightToes  2.91037e-010 0 -3.6325e-017
Spine  68.6817 -3.20345 4.19428
Spine1  20.5005 1.5862 -3.60081
HEad  -24.2458 -1.55588 -2.16425
LeftShoulder1  4.61409 -22.5534 -10.3551
LeftArm  -87.5662 -60.1339 43.7366
LeftForeArm  -8.16605 -4.11379 1.60551
LeftHand  -0.244104 0.0205437 5.32207
RightShoulder  -1.76302 16.99 -19.4287
RightArm  -73.8243 48.7606 -13.6282
RightForeArm  -24.4849 -2.87612 -4.76629
RightHand  0.450535 -2.71365 20.4606
LeftUpLeg  -53.7457 22.2579 -22.0814
LeftLeg  31.7918 1.12051 1.10728
LeftFoot  -8.18454 -0.321248 13.4506
LeftToes  -1.10052e-010 1.3781e-010 -2.1811e-011
965
root  21.7174 38.0005 32.1315 -154.245 -28.5216 -179.765
RightUpLeg  -58.9044 -21.897 1.92809
RightLeg  49.0243 -5.13976 -6.6484
RightFoot  0.224234 -0.751084 7.51194
RightToes  2.91037e-010 0 -3.6325e-017
Spine  68.5217 -2.99402 4.05316
Spine1  19.8286 1.73111 -3.87443
HEad  -25.1069 -1.68124 -2.18198
LeftShoulder1  4.4971 -22.615 -9.81329
LeftArm  -86.8143 -59.7121 45.1853
LeftForeArm  -9.16889 -2.52188 1.24671
LeftHand  -0.244104 0.0205437 5.32207
RightShoulder  -1.7886 17.2056 -19.4664
RightArm  -73.6892 48.0116 -13.5327
RightForeArm  -23.1529 -2.18342 -4.71411
RightHand  0.647232 -1.7132 20.8094
LeftUpLeg  -55.5858 23.2989 -24.1845
LeftLeg  28.1936 0.153859 0.435467
LeftFoot  -4.45449 -0.800618 13.6909
LeftToes  -1.10052e-010 1.3781e-010 -2.1811e-011
966
root  22.3891 38.1555 32.686 -153.207 -26.886 179.941
RightUpLeg  -56.009 -21.3517 -0.851805
RightLeg  48.8915 -7.24866 -9.13798
RightFoot  2.28965 -0.403112 3.52569
RightToes  2.91037e-010 0 -3.6325e-017
Spine  68.2926 -2.67858 3.77981
Spine1  20.0252 2.06571 -4.17631
HEad  -25.6149 -1.80977 -2.17216
LeftShoulder1  4.49222 -23.0247 -9.49173
LeftArm  -86.9164 -59.5836 45.6863
LeftForeArm  -9.78967 -1.77293 1.31
LeftHand  -0.244104 0.0205437 5.32207
RightShoulder  -1.78209 17.1993 -19.4337
RightArm  -74.8133 47.7592 -14.2399
RightForeArm  -23.0267 -1.74535 -4.9196
RightHand  0.666015 -1.61112 20.7751
LeftUpLeg  -56.8197 24.4151 -26.0562
LeftLeg  24.7224 -0.650206 0.0159249
LeftFoot  -1.79752 -1.15504 13.8906
LeftToes  -1.10052e-010 1.3781e-010 -2.1811e-011
967
root  23.1049 38.1808 33.2344 -152.51 -25.2274 179.553
RightUpLeg  -52.6981 -20.7671 -3.27115
RightLeg  47.9977 -9.20776 -11.1043
RightFoot  4.60052 -0.363977 2.74118
RightToes  2.91037e-010 0 -3.6325e-017
Spine  67.7854 -2.42623 3.54301
Spine1  20.5141 2.32055 -4.41197
HEad  -25.3819 -1.94337 -2.39697
LeftShoulder1  4.64069 -23.623 -9.67528
LeftArm  -87.1098 -59.693 44.7339
LeftForeArm  -9.64597 -1.8435 1.71384
LeftHand  -0.244104 0.0205437 5.32207
RightShoulder  -1.73335 16.7506 -19.3789
RightArm  -76.4135 48.4223 -15.1345
RightForeArm  -23.4512 -1.91267 -5.24151
RightHand  0.592098 -1.91258 20.2245
LeftUpLeg  -57.9448 25.4883 -27.8533
LeftLeg  21.5683 -1.48946 -0.290155
LeftFoot  0.48384 -1.46219 14.0197
LeftToes  -1.10052e-010 1.3781e-010 -2.1811e-011
968
root  23.9262 38.0926 33.783 -152.02 -23.8391 178.742
RightUpLeg  -48.8955 -19.8635 -5.90637
RightLeg  46.385 -9.14106 -10.4501
RightFoot  2.88019 -0.84412 7.18201
RightToes  2.91037e-010 0 -3.6325e-017
Spine  67.2884 -2.25868 3.11631
Spine1  20.7538 2.24632 -4.47649
HEad  -25.0758 -1.96555 -2.43323
LeftShoulder1  4.8747 -24.1874 -10.2169
LeftArm  -86.0883 -59.8566 43.1133
LeftForeArm  -9.59563 -1.55844 1.86584
LeftHand  -0.244104 0.0205437 5.32207
RightShoulder  -1.65941 16.2166 -19.2187
RightArm  -77.3499 49.3296 -15.6923
RightForeArm  -23.2472 -2.14266 -5.35261
RightHand  0.595695 -1.66347 18.964
LeftUpLeg  -59.1455 26.1295 -29.2773
LeftLeg  19.6039 -1.72243 -0.531242
LeftFoot  3.14509 -1.78391 13.8156
LeftToes  -1.10052e-010 1.3781e-010 -2.1811e-011
969
root  24.8767 37.9099 34.3506 -151.884 -22.7135 177.54
RightUpLeg  -45.2565 -19.0018 -8.10479
RightLeg  43.6925 -7.09415 -7.51409
RightFoot  -3.38217 -0.941071 13.1229
RightToes  2.91037e-010 0 -3.6325e-017
Spine  67.1182 -2.13311 2.38657
Spine1  20.7606 1.92151 -4.47984
HEad  -25.1484 -1.82203 -1.86489
LeftShoulder1  5.10724 -24.6402 -10.8095
LeftArm  -83.6581 -59.9266 41.3863
LeftForeArm  -10.0463 -0.672291 1.55007
LeftHand  -0.244104 0.0205437 5.32207
RightShoulder  -1.58466 16.0156 -18.8831
RightArm  -77.3254 49.8959 -15.8216
RightForeArm  -22.5417 -1.93614 -5.13362
RightHand  0.647582 -1.00467 17.3275
LeftUpLeg  -59.3279 25.5201 -28.3689
LeftLeg  18.6 0.503612 -0.9703
LeftFoot  5.65077 -2.07642 13.5983
LeftToes  -1.10052e-010 1.3781e-010 -2.1811e-011
970
root  25.87 37.7135 34.969 -152.079 -21.5092 176.731
RightUpLeg  -43.8355 -19.1643 -8.09649
RightLeg  40.9675 -4.81093 -4.73355
RightFoot  -9.37635 -0.33814 14.7238
RightToes  2.91037e-010 0 -3.6325e-017
Spine  67.1488 -2.01069 1.91375
Spine1  20.6337 1.69417 -4.49759
HEad  -25.4667 -1.67072 -1.05997
LeftShoulder1  5.32835 -25.0769 -11.3489
LeftArm  -80.7797 -59.8714 39.5787
LeftForeArm  -10.4964 0.0741191 1.05325
LeftHand  -0.244104 0.0205437 5.32207
RightShoulder  -1.52793 15.9056 -18.6029
RightArm  -77.0414 50.3706 -15.6936
RightForeArm  -22.0769 -1.55792 -4.84078
RightHand  0.636418 -0.747677 16.0364
LeftUpLeg  -58.0811 23.6541 -24.3099
LeftLeg  16.9064 5.52594 -1.76933
LeftFoot  7.95588 -2.37463 13.6102
LeftToes  -1.10052e-010 1.3781e-010 -2.1811e-011
971
root  26.8142 37.5992 35.6539 -152.416 -20.0715 176.939
RightUpLeg  -45.6142 -20.2867 -5.28179
RightLeg  39.9481 -3.77949 -3.65999
RightFoot  -11.4108 -0.0641865 11.7277
RightToes  2.91037e-010 0 -3.6325e-017
Spine  67.1638 -1.9141 2.21061
Spine1  20.4944 1.77499 -4.40468
HEad  -26.0138 -1.61911 -0.752316
LeftShoulder1  5.54035 -25.5813 -11.7864
LeftArm  -78.4792 -59.5909 38.0506
LeftForeArm  -10.7911 0.483877 0.740377
LeftHand  -0.244104 0.0205437 5.32207
RightShoulder  -1.50736 15.4526 -18.6969
RightArm  -77.4084 51.1238 -15.834
RightForeArm  -21.9413 -1.42947 -4.73907
RightHand  0.555117 -1.13446 15.3806
LeftUpLeg  -55.5766 20.3512 -16.6497
LeftLeg  13.3682 13.8996 -3.36269
LeftFoot  10.9797 -2.79876 13.7652
LeftToes  -1.10052e-010 1.3781e-010 -2.1811e-011
972
root  27.7332 37.5184 36.3856 -152.953 -18.8361 177.65
RightUpLeg  -48.6937 -20.8262 -1.74332
RightLeg  40.837 -3.83209 -3.82838
RightFoot  -10.6764 -0.119477 8.25526
RightToes  2.91037e-010 0 -3.6325e-017
Spine  67.1917 -1.90674 2.84251
Spine1  20.6724 1.93639 -4.01363
HEad  -26.7787 -1.54619 -1.00683
LeftShoulder1  5.71071 -26.0655 -12.0677
LeftArm  -77.241 -58.9965 37.3856
LeftForeArm  -11.4546 0.959234 0.743836
LeftHand  -0.244104 0.0205437 5.32207
RightShoulder  -1.52388 14.9292 -19.0558
RightArm  -78.54 51.8902 -16.9435
RightForeArm  -21.9939 -1.42292 -4.7131
RightHand  0.448144 -1.80296 14.9605
LeftUpLeg  -52.6718 15.9914 -7.26766
LeftLeg  8.57831 24.0342 -5.9353
LeftFoot  14.543 -3.25764 13.7238
LeftToes  -1.10052e-010 1.3781e-010 -2.1811e-011
973
root  28.6488 37.4091 37.1146 -153.868 -18.1989 178.171
RightUpLeg  -50.5939 -20.2629 0.403066
RightLeg  41.9895 -3.92213 -4.0643
RightFoot  -9.81952 -0.15575 6.60097
RightToes  2.91037e-010 0 -3.6325e-017
Spine  67.3586 -2.01677 3.28938
Spine1  21.4 1.79628 -3.10545
HEad  -27.186 -1.35625 -1.08504
LeftShoulder1  5.85745 -26.3379 -12.4085
LeftArm  -77.0959 -58.265 37.561
LeftForeArm  -12.4432 1.45575 1.01415
LeftHand  -0.244104 0.0205437 5.32207
RightShoulder  -1.55387 14.8868 -19.2637
RightArm  -79.5844 52.325 -18.7915
RightForeArm  -22.2411 -1.27823 -4.49001
RightHand  0.364572 -2.32069 14.4877
LeftUpLeg  -50.1599 12.1527 0.262699
LeftLeg  3.80139 31.9861 -8.61312
LeftFoot  16.9484 -3.18194 12.1746
LeftToes  -1.10052e-010 1.3781e-010 -2.1811e-011
